<?xml version="1.0" encoding="UTF-8"?>
<svg version="1.1" xmlns="http://www.w3.org/2000/svg" width="1563" height="1563">
<path d="M0 0 C0.54567627 0.44069824 1.09135254 0.88139648 1.65356445 1.33544922 C5.49017497 4.60416673 8.47741016 8.0985822 11.49609375 12.13671875 C20.75702066 23.94769096 20.75702066 23.94769096 34.19580078 29.62207031 C44.24038219 30.77391511 54.34806882 30.31851665 64.4201355 29.78665161 C79.3794641 29.05463789 93.02131033 34.69346995 104.37109375 44.37109375 C114.35994856 53.75570781 119.83466584 65.97956803 121.25 79.5625 C121.15691134 81.76192429 120.95118743 83.93025854 120.72450256 86.11982727 C118.29172523 109.10348352 118.29172523 109.10348352 126.99975586 129.58200073 C133.29324636 136.57398445 140.47328871 142.45811508 147.7520752 148.38217163 C155.69036091 155.14494322 161.42713867 165.72687983 163.07421875 176.10546875 C164.24253311 192.4359073 162.68283335 208.02220277 151.8944397 221.22091675 C148.35144748 225.15421292 144.5245324 228.79474068 140.6875 232.4375 C139.00935878 234.05764039 137.33569473 235.68224288 135.66407776 237.30911255 C134.63474295 238.30805167 133.60104128 239.30252216 132.56187439 240.29122925 C131.10077466 241.69283596 129.67462236 243.12390299 128.25 244.5625 C127.69850784 245.08454514 127.14701569 245.60659027 126.57881165 246.14445496 C122.73906243 250.07663146 121.56292678 252.91197298 121.4947052 258.40003967 C121.5132103 259.23869064 121.53171539 260.07734161 121.55078125 260.94140625 C121.54418991 261.83053207 121.53759857 262.7196579 121.5308075 263.63572693 C121.51341111 266.46625664 121.53518912 269.29457762 121.5625 272.125 C121.64759088 293.04830425 120.83124175 311.42218933 105.45703125 327.3828125 C104.72871094 328.10210938 104.00039063 328.82140625 103.25 329.5625 C102.69699219 330.13742187 102.14398438 330.71234375 101.57421875 331.3046875 C93.68378526 338.86227392 81.73456567 343.41901075 70.83375549 343.60336304 C68.3929266 343.48062209 65.96309579 343.29659308 63.52734375 343.09765625 C41.01061322 341.18257746 41.01061322 341.18257746 21.15234375 349.90625 C16.19373412 354.44734967 11.95789606 359.64027871 7.90388489 364.98997498 C-0.31893961 375.76601277 -12.72488701 383.2098167 -26.16796875 385.31640625 C-41.89633741 386.81547921 -57.1174516 384.27219974 -69.62109375 374.02978516 C-71.63897413 372.26515485 -73.60621427 370.45763148 -75.5625 368.625 C-76.60108154 367.67101318 -76.60108154 367.67101318 -77.66064453 366.69775391 C-81.1813248 363.36888718 -84.12867074 360.15432764 -86.7421875 356.06640625 C-90.78990391 350.24625254 -94.74681599 345.49809554 -102.06182861 344.13018799 C-113.68800802 342.74609951 -125.440652 343.27635589 -137.11483765 343.58660889 C-152.04872724 343.84932989 -164.74440138 338.6899861 -175.625 328.375 C-187.68246386 315.54417111 -192.07460732 301.44397183 -191.64453125 284.1484375 C-191.62057337 281.36703032 -191.60709613 278.58567455 -191.59350586 275.80419922 C-191.57294804 273.90349114 -191.53279525 272.00288726 -191.47241211 270.10302734 C-190.92476019 257.12473238 -190.92476019 257.12473238 -196.63145447 245.92732239 C-198.71756252 243.7946549 -200.88475694 241.80930318 -203.17025757 239.89245605 C-205.48861103 237.94067698 -207.62862546 235.81494861 -209.796875 233.69921875 C-210.57554932 232.96550049 -211.35422363 232.23178223 -212.15649414 231.47583008 C-223.89751382 220.32436884 -233.16733427 208.06576562 -234.0859375 191.30078125 C-234.37428017 177.22398666 -231.88013068 163.83915985 -222.75 152.5625 C-220.46389004 150.34916989 -218.02152546 148.3631146 -215.5390625 146.375 C-198.85188588 133.22299277 -198.85188588 133.22299277 -190.93875122 114.28521729 C-190.17245869 104.84615268 -190.77330537 95.49023861 -191.51011658 86.06843567 C-192.43115667 71.97169139 -187.7441064 58.83523646 -178.61328125 48.03515625 C-168.21758644 37.13146937 -154.8768015 30.02036697 -139.56225586 29.4861908 C-137.09446267 29.46724572 -134.6279686 29.47708693 -132.16015625 29.4921875 C-130.30532914 29.48360613 -128.45051 29.47313129 -126.59570312 29.4609375 C-123.70096388 29.44424322 -120.80802846 29.43753916 -117.91333008 29.46289062 C-105.83197061 30.16853577 -105.83197061 30.16853577 -95.15234375 25.75390625 C-93.98011386 24.38859298 -92.84985623 22.98676105 -91.75 21.5625 C-90.42505717 20.17299028 -89.09886982 18.78450707 -87.75474548 17.4135437 C-86.26490815 15.89348288 -84.79377214 14.35701891 -83.32470703 12.81689453 C-73.85659359 2.95388083 -65.07697272 -6.15662013 -51.75 -10.4375 C-50.39455078 -10.87449219 -50.39455078 -10.87449219 -49.01171875 -11.3203125 C-31.68032094 -15.68771418 -13.66163225 -11.06025927 0 0 Z M-70.75 28.5625 C-70.75 28.8925 -70.75 29.2225 -70.75 29.5625 C-47.32 29.5625 -23.89 29.5625 0.25 29.5625 C-7.61780725 19.07209033 -15.70358459 10.70845269 -29.0234375 7.86328125 C-47.59882705 5.81160521 -58.94005585 15.71344063 -70.75 28.5625 Z M-161.75 59.5625 C-169.9224102 69.46403931 -172.26793279 78.49549178 -171.9375 91.1875 C-171.92396484 92.19167969 -171.91042969 93.19585938 -171.89648438 94.23046875 C-171.86156152 96.67506864 -171.81252748 99.11847734 -171.75 101.5625 C-165.7482502 96.62285761 -160.25871024 91.22444683 -154.77978516 85.72265625 C-153.25663612 84.19415942 -151.72822998 82.67106762 -150.19921875 81.1484375 C-145.41976414 76.37189788 -140.76793299 71.54029021 -136.37255859 66.40332031 C-133.50983014 63.15550621 -130.40499578 60.15204614 -127.3125 57.125 C-126.06156569 55.8994139 -124.81273747 54.67167305 -123.56640625 53.44140625 C-122.75345093 52.64585327 -122.75345093 52.64585327 -121.92407227 51.83422852 C-120.63694453 50.72851093 -120.63694453 50.72851093 -120.75 49.5625 C-123.91658663 49.50369196 -127.08302993 49.46863594 -130.25 49.4375 C-131.136875 49.42074219 -132.02375 49.40398438 -132.9375 49.38671875 C-143.62487955 49.30813508 -153.90008999 51.91386973 -161.75 59.5625 Z M-170.30997467 126.26469421 C-185.34518192 160.6968618 -186.31878503 205.04225768 -173.18395996 240.20463562 C-164.76332988 259.92299217 -149.77386217 275.78965248 -134.75 290.6875 C-133.89635864 291.55187683 -133.04271729 292.41625366 -132.16320801 293.30682373 C-114.58626452 311.02202035 -98.03889155 325.12540425 -72.20166016 325.8427124 C-62.69210856 325.54230722 -53.22038616 324.47551743 -43.75 323.5625 C-43.75 307.3925 -43.75 291.2225 -43.75 274.5625 C-49.03 273.2425 -54.31 271.9225 -59.75 270.5625 C-70.37023557 266.88832759 -79.20837848 261.9177852 -87.75 254.5625 C-88.54921875 253.87542969 -89.3484375 253.18835938 -90.171875 252.48046875 C-106.18298175 237.60118161 -112.1051861 217.72101124 -114.75 196.5625 C-108.81 196.5625 -102.87 196.5625 -96.75 196.5625 C-96.8325 197.944375 -96.915 199.32625 -97 200.75 C-96.95709451 215.93854322 -88.93092465 229.27601934 -78.609375 239.83203125 C-66.787513 251.12094045 -51.79265169 257.39350488 -35.4375 258 C-17.67507878 257.48576826 -2.05140488 250.3703092 10.25 237.5625 C20.57796917 226.49549904 27.25 211.92127077 27.25 196.5625 C32.86 196.5625 38.47 196.5625 44.25 196.5625 C41.35815252 218.6157759 35.40698562 236.37681636 19.25 252.5625 C18.63769531 253.18640625 18.02539062 253.8103125 17.39453125 254.453125 C5.95029696 265.28732548 -9.33212005 271.42059177 -24.75 273.5625 C-25.96954667 274.56106319 -25.96954667 274.56106319 -25.87025452 276.54298401 C-25.86803391 277.41124313 -25.86581329 278.27950226 -25.86352539 279.17407227 C-25.86344986 280.15501358 -25.86337433 281.1359549 -25.86329651 282.1466217 C-25.85813522 283.2132756 -25.85297394 284.2799295 -25.84765625 285.37890625 C-25.8462413 286.4650975 -25.84482635 287.55128876 -25.84336853 288.6703949 C-25.83775048 292.15529075 -25.82519492 295.64012342 -25.8125 299.125 C-25.80748733 301.48111887 -25.80292402 303.83723874 -25.79882812 306.19335938 C-25.78777519 311.98309464 -25.77101951 317.77279281 -25.75 323.5625 C2.63845933 327.0973217 2.63845933 327.0973217 28.9765625 320.05859375 C32.57270011 316.76553657 35.33538644 313.09726895 37.80726624 308.90504456 C41.96327855 302.15699148 47.18032102 297.70302153 53.73227024 293.31770039 C79.26228128 276.18001098 100.34500843 255.41232152 106.54782104 224.35269165 C113.64415142 183.64909093 111.39186983 139.09088617 87.1953125 104.39453125 C63.3097302 71.72334335 30.40635012 47.73480311 -9.97612 41.31600189 C-77.43512288 32.15549011 -140.56132907 64.02544679 -170.30997467 126.26469421 Z M50.25 49.5625 C56.00114538 56.52242471 62.3918327 62.76069005 68.81835938 69.09179688 C73.22052103 73.45402963 77.45390869 77.8647622 81.48754883 82.56860352 C84.86788285 86.39284343 88.50784156 89.964051 92.125 93.5625 C92.89585937 94.33722656 93.66671875 95.11195313 94.4609375 95.91015625 C95.55921875 97.00650391 95.55921875 97.00650391 96.6796875 98.125 C97.67331299 99.11693359 97.67331299 99.11693359 98.68701172 100.12890625 C100.01934591 101.67515726 100.01934591 101.67515726 101.25 101.5625 C101.33847317 98.10433314 101.39087725 94.64646421 101.4375 91.1875 C101.46263672 90.22199219 101.48777344 89.25648438 101.51367188 88.26171875 C101.62013602 77.68628036 99.20697178 68.6965733 92.25 60.5625 C82.42927369 51.34997896 73.02333445 49.37808249 59.875 49.5 C58.48474609 49.50676758 58.48474609 49.50676758 57.06640625 49.51367188 C54.79420291 49.52538426 52.52213612 49.54178628 50.25 49.5625 Z M-199.5 157.0625 C-200.12132812 157.66320312 -200.74265625 158.26390625 -201.3828125 158.8828125 C-208.67785968 166.1162981 -213.88875675 173.67847724 -214.13110352 184.27099609 C-214.09037906 197.89251061 -210.30221431 204.94785292 -200.75 214.5625 C-199.98171875 215.3565625 -199.2134375 216.150625 -198.421875 216.96875 C-195.63771009 219.8191641 -195.63771009 219.8191641 -192.75 222.5625 C-192.42 222.5625 -192.09 222.5625 -191.75 222.5625 C-191.75 198.8025 -191.75 175.0425 -191.75 150.5625 C-194.44520622 150.5625 -197.68301727 155.26022968 -199.5 157.0625 Z M121.25 150.5625 C121.25 174.3225 121.25 198.0825 121.25 222.5625 C131.19988509 214.03402707 139.0366931 207.2024207 143.25 194.5625 C144.13186936 182.63557829 142.76905984 173.25829805 135.171875 163.72265625 C131.08424277 159.12822409 126.76022903 154.74233746 122.25 150.5625 C121.92 150.5625 121.59 150.5625 121.25 150.5625 Z M-171.75 272.5625 C-172.670775 293.51025105 -172.670775 293.51025105 -163.4375 311.78515625 C-157.38753078 318.15723032 -149.64480735 322.92758498 -140.78515625 323.88183594 C-137.72197234 323.95359859 -134.68718808 323.91379375 -131.625 323.8125 C-130.573125 323.79445313 -129.52125 323.77640625 -128.4375 323.7578125 C-125.87400578 323.71120351 -123.31251906 323.6458027 -120.75 323.5625 C-125.81141943 317.44833878 -131.30950774 311.85793358 -136.92578125 306.25390625 C-137.90144692 305.27756577 -138.8769642 304.30107699 -139.8523407 303.32444763 C-141.88212002 301.29320388 -143.91367254 299.26375551 -145.9465332 297.2355957 C-148.55719049 294.63068085 -151.16327093 292.02124011 -153.7680788 289.41047764 C-155.77448136 287.4004743 -157.78324354 285.39284284 -159.79274559 283.38593864 C-160.75559145 282.42376104 -161.71769178 281.46083682 -162.67904091 280.49716377 C-164.01449097 279.15919027 -165.3534668 277.82473863 -166.69262695 276.49047852 C-167.45396439 275.72993668 -168.21530182 274.96939484 -168.99971008 274.18580627 C-170.47433689 272.4491651 -170.47433689 272.4491651 -171.75 272.5625 Z M95.54663086 277.13647461 C95.0588063 277.62254684 94.57098175 278.10861908 94.06837463 278.60942078 C92.44799654 280.22537848 90.83132598 281.84498957 89.21484375 283.46484375 C88.09540727 284.58360725 86.97582233 285.70222221 85.85609436 286.82069397 C83.50651595 289.16879515 81.15876346 291.51870326 78.81225586 293.86987305 C75.79686003 296.89096617 72.77699834 299.90754899 69.75575924 302.9227972 C67.44206794 305.23288356 65.13075324 307.54533587 62.82016182 309.85852242 C61.70726613 310.97208756 60.59362062 312.08490382 59.47923088 313.1969738 C57.92505285 314.7486264 56.37409305 316.30342415 54.82397461 317.85913086 C53.93874619 318.74515488 53.05351776 319.63117889 52.14146423 320.54405212 C50.13603645 322.22308399 50.13603645 322.22308399 50.25 323.5625 C53.87471857 323.68033281 57.49893403 323.75028808 61.125 323.8125 C62.64480469 323.86277344 62.64480469 323.86277344 64.1953125 323.9140625 C74.45133241 324.04554993 83.5174193 321.09349545 91.02734375 313.84765625 C97.84931721 306.56415393 101.40918656 298.50990978 101.34765625 288.48046875 C101.34443359 287.54912109 101.34121094 286.61777344 101.33789062 285.65820312 C101.32951172 284.69849609 101.32113281 283.73878906 101.3125 282.75 C101.30798828 281.77095703 101.30347656 280.79191406 101.29882812 279.78320312 C101.28708684 277.37623889 101.27066419 274.96940143 101.25 272.5625 C99.1122393 272.5625 96.89220331 275.79211039 95.54663086 277.13647461 Z M-70.75 343.5625 C-68.77 345.8725 -66.79 348.1825 -64.75 350.5625 C-64.19054687 351.29597656 -63.63109375 352.02945312 -63.0546875 352.78515625 C-57.89112224 359.4300722 -50.1016291 364.07344985 -41.75 365.5625 C-30.90327085 366.47011382 -21.12406952 364.83450604 -12.3671875 358.046875 C-9.86913122 355.7539731 -7.68197093 353.23629897 -5.5234375 350.625 C-3.39678339 348.15171064 -1.05649279 345.86899279 1.25 343.5625 C-22.51 343.5625 -46.27 343.5625 -70.75 343.5625 Z " fill="#AF0088" transform="translate(289.75,558.4375)"/>
<path d="M0 0 C1.71678955 0.00845947 1.71678955 0.00845947 3.46826172 0.01708984 C30.72415911 0.40717708 52.94327063 11.54462004 72.25 30.3125 C90.29527886 49.44320917 99.70979455 74.13294771 99.25 100.3125 C98.41509763 123.02089575 91.38677519 143.12082799 76.25 160.3125 C75.58613281 161.11945313 74.92226563 161.92640625 74.23828125 162.7578125 C59.35465054 180.31004243 37.3588789 192.98062524 14.25 195.3125 C-16.84200897 196.80204729 -42.00514235 191.19437451 -65.75 170.08984375 C-82.64869191 154.63671544 -95.66585405 132.58767185 -96.91113281 109.29907227 C-97.34555813 76.50248662 -91.07541557 51.39518787 -67.75 27.3125 C-49.35402109 9.04390904 -25.85375475 -0.133878 0 0 Z M-45.75 53.3125 C-46.46671875 54.02148438 -47.1834375 54.73046875 -47.921875 55.4609375 C-59.76977051 67.79878358 -64.13765032 84.03821366 -63.96484375 100.78125 C-62.8843676 118.54034885 -55.69306473 133.60202158 -43.078125 145.921875 C-28.65810634 158.34142864 -11.59608948 163.4773797 7.25 162.3125 C25.72302364 159.58762883 40.19148836 151.77071545 52.25 137.3125 C59.47985527 126.78613041 64.39331565 115.16276518 65.25 102.3125 C65.3015625 101.67828125 65.353125 101.0440625 65.40625 100.390625 C66.12992743 84.34910866 60.63254535 68.3621538 50.16674805 56.23413086 C36.82958174 41.6742569 20.44234305 33.87523062 0.75 32.9375 C-17.3859477 33.83225264 -33.1062674 40.07751372 -45.75 53.3125 Z " fill="#AF0088" transform="translate(809.75,656.6875)"/>
<path d="M0 0 C3.5168198 2.27377911 6.77866175 4.52870781 9.8046875 7.42578125 C10.47113281 8.05806641 11.13757812 8.69035156 11.82421875 9.34179688 C12.83935547 10.31729492 12.83935547 10.31729492 13.875 11.3125 C18.54297616 15.76911308 23.25293844 20.13963059 28.12939453 24.36791992 C30.79904737 26.69715893 33.39768163 29.09568412 36 31.5 C39.29952777 34.53968996 42.60951607 37.56158059 46 40.5 C49.9308925 43.9067735 53.75196573 47.43002785 57.578125 50.953125 C60.35494057 53.50555143 63.14980717 56.02983288 66 58.5 C69.9308925 61.9067735 73.75196573 65.43002785 77.578125 68.953125 C80.35494057 71.50555143 83.14980717 74.02983288 86 76.5 C89.9308925 79.9067735 93.75196573 83.43002785 97.578125 86.953125 C100.96210815 90.06365496 104.39313872 93.10828332 107.8671875 96.1171875 C111.16380488 99.02738819 114.38982111 102.01506368 117.61328125 105.00585938 C120.99586987 108.12999284 124.45219514 111.04349595 128 114 C128.33 76.38 128.66 38.76 129 0 C139.89 0 150.78 0 162 0 C162 64.35 162 128.7 162 195 C158.67927175 193.33963587 156.9653976 192.23650172 154.390625 189.76953125 C153.71773437 189.13080078 153.04484375 188.49207031 152.3515625 187.83398438 C151.31128906 186.83334961 151.31128906 186.83334961 150.25 185.8125 C145.53926008 181.31222089 140.78939893 176.89537313 135.86621094 172.62768555 C133.19771052 170.30025327 130.60080751 167.90291998 128 165.5 C124.70047223 162.46031004 121.39048393 159.43841941 118 156.5 C114.0691075 153.0932265 110.24803427 149.56997215 106.421875 146.046875 C103.64505943 143.49444857 100.85019283 140.97016712 98 138.5 C94.60949156 135.56155935 91.30033018 132.53883698 88 129.5 C84.04140277 125.8558306 80.04823168 122.26086221 75.984375 118.734375 C71.94625309 115.20499286 67.98085319 111.59365774 64 108 C62.33359149 106.49971321 60.66692647 104.99971128 59 103.5 C45.66666667 91.5 32.33333333 79.5 19 67.5 C18.18273438 66.76523437 17.36546875 66.03046875 16.5234375 65.2734375 C14.77556329 63.6987273 13.03098862 62.1203499 11.2890625 60.5390625 C10.40992188 59.74242187 9.53078125 58.94578125 8.625 58.125 C7.83351563 57.40570312 7.04203125 56.68640625 6.2265625 55.9453125 C4.10725121 53.9872391 4.10725121 53.9872391 1.88922119 52.69230652 C0 51 0 51 -0.48101807 48.70307922 C-0.47213562 47.80373154 -0.46325317 46.90438385 -0.45410156 45.9777832 C-0.45379944 44.95695145 -0.45349731 43.93611969 -0.45318604 42.88435364 C-0.43254089 41.78427475 -0.41189575 40.68419586 -0.390625 39.55078125 C-0.38496521 38.4230278 -0.37930542 37.29527435 -0.37347412 36.13334656 C-0.35105631 32.52596865 -0.30084784 28.91957847 -0.25 25.3125 C-0.22994209 22.86915495 -0.21169009 20.42579436 -0.1953125 17.98242188 C-0.15117379 11.98794338 -0.08420731 5.99404224 0 0 Z " fill="#AF0088" transform="translate(1098,657)"/>
<path d="M0 0 C0.66 0 1.32 0 2 0 C10.35184547 16.63366881 18.69685279 33.27075073 27.03369141 49.9119463 C30.90462325 57.63832859 34.77780077 65.36356977 38.65625 73.08618164 C42.0359494 79.81571708 45.41145177 86.54733779 48.78189087 93.28151625 C50.56733124 96.84847956 52.3548827 100.41434945 54.14746094 103.9777317 C55.8335911 107.32967538 57.51410785 110.68437219 59.19030762 114.04129219 C59.80742263 115.27469486 60.42660504 116.50706557 61.04797363 117.73833084 C61.89427543 119.41606687 62.73251985 121.09786015 63.5703125 122.77986145 C64.04227051 123.72101209 64.51422852 124.66216272 65.00048828 125.63183308 C66 128 66 128 66 131 C53.79 131 41.58 131 29 131 C19.29935242 112.8504013 10.16567505 94.42364647 1 76 C-5.58041587 88.37101139 -11.97305606 100.82220849 -18.20772552 113.37085152 C-19.6528599 116.2789114 -21.10109831 119.18540771 -22.55010986 122.09153748 C-26.66124657 130.33793633 -30.76761218 138.58670473 -34.87060547 146.8371582 C-37.40093993 151.92471785 -39.93524137 157.01028545 -42.47193146 162.09467888 C-43.42865283 164.01428466 -44.3838606 165.93464565 -45.33745575 167.85580635 C-47.84562258 172.90862261 -50.37691145 177.94751729 -52.96097946 182.96198273 C-53.88295962 184.77042772 -54.77032941 186.59642515 -55.65249634 188.42462158 C-58.80392172 194.49529945 -58.80392172 194.49529945 -61.93322754 195.81575012 C-64.25963215 196.16237011 -66.33382293 196.13211576 -68.6796875 195.9765625 C-69.49245148 195.96241302 -70.30521545 195.94826355 -71.14260864 195.9336853 C-73.72391779 195.87795126 -76.29634627 195.75263228 -78.875 195.625 C-80.63008233 195.57480853 -82.38530168 195.52918644 -84.140625 195.48828125 C-88.43047447 195.37836734 -92.71373558 195.20603993 -97 195 C-95.51243422 190.10373335 -93.48999328 185.6999265 -91.19761658 181.147995 C-90.81275937 180.37586617 -90.42790217 179.60373734 -90.03138262 178.80821067 C-88.74468572 176.22919453 -87.45230483 173.65307028 -86.15991211 171.0769043 C-85.23480524 169.22561736 -84.31004483 167.37415727 -83.38560486 165.52253723 C-80.87700151 160.50048672 -78.36341 155.4809481 -75.848809 150.46189857 C-73.22011014 145.21328404 -70.59562885 139.96256129 -67.97059631 134.71211243 C-63.56409778 125.90005156 -59.15450446 117.08954497 -54.74291992 108.2800293 C-49.63605423 98.08204438 -44.53338979 87.88196638 -39.43311495 77.68068379 C-34.53139512 67.87663482 -29.62739443 58.07372874 -24.72210884 48.27146339 C-22.63178169 44.09434754 -20.54214003 39.91688982 -18.45301628 35.73917198 C-15.99665031 30.82744112 -13.53825638 25.91673063 -11.07825661 21.00681877 C-10.17333405 19.19990551 -9.26909709 17.39264872 -8.3655777 15.58503342 C-7.13736512 13.12812096 -5.90671745 10.67244419 -4.67539978 8.21708679 C-4.31392772 7.49259407 -3.95245566 6.76810135 -3.5800299 6.02165431 C-1.11417918 1.11417918 -1.11417918 1.11417918 0 0 Z " fill="#AF0088" transform="translate(1406,657)"/>
<path d="M0 0 C1.96386453 1.40901804 3.75652242 2.87781252 5.5390625 4.5078125 C6.4053125 5.2915625 7.2715625 6.0753125 8.1640625 6.8828125 C20.54452284 20.56647919 22.85981927 33.8866587 22.83984375 51.9375 C22.84374173 53.41903806 22.84807862 54.90057502 22.85282898 56.3821106 C22.86024834 59.47336464 22.86003134 62.56450438 22.85473633 65.65576172 C22.84894801 69.58471142 22.86587799 73.51318873 22.889081 77.44206047 C22.9039312 80.49816547 22.90467484 83.55415964 22.90157127 86.61029434 C22.90207886 88.05733297 22.90720866 89.50437874 22.91738319 90.95138168 C23.02074882 107.70415127 19.82351569 121.77176667 8.0546875 134.18359375 C3.91492237 138.00837675 -0.48664141 140.88132843 -5.4609375 143.5078125 C-6.27820313 143.94222656 -7.09546875 144.37664062 -7.9375 144.82421875 C-17.82483074 149.21688736 -31.21868495 149.3446808 -41.4609375 145.9453125 C-55.14719125 139.9097596 -65.68602186 131.06422311 -71.46484375 117.078125 C-73.70389461 110.65302252 -74.58253367 104.49407999 -74.62207031 97.68310547 C-74.62703522 97.02850845 -74.63200012 96.37391144 -74.63711548 95.69947815 C-74.65163002 93.54964107 -74.65852264 91.39987788 -74.6640625 89.25 C-74.66688988 88.50923344 -74.66971725 87.76846687 -74.67263031 87.00525284 C-74.68758286 83.08162332 -74.69683596 79.15803017 -74.70117188 75.234375 C-74.70663719 71.21342201 -74.73063517 67.19281094 -74.75914383 63.17196465 C-74.77791793 60.05238932 -74.78298368 56.93289376 -74.78450775 53.81326675 C-74.78750384 52.33272568 -74.7954272 50.85218496 -74.80869293 49.37170029 C-74.93967241 33.62474722 -72.26761703 19.05341055 -61.1953125 7.125 C-44.46112718 -8.47849712 -19.80857082 -12.0109112 0 0 Z M-48.46875 20.3984375 C-54.81025837 27.13794848 -56.4609375 32.26119913 -56.4609375 41.5078125 C-44.9109375 41.5078125 -33.3609375 41.5078125 -21.4609375 41.5078125 C-21.4609375 47.4478125 -21.4609375 53.3878125 -21.4609375 59.5078125 C-33.0109375 59.5078125 -44.5609375 59.5078125 -56.4609375 59.5078125 C-56.4609375 60.1678125 -56.4609375 60.8278125 -56.4609375 61.5078125 C-44.9109375 61.5078125 -33.3609375 61.5078125 -21.4609375 61.5078125 C-21.4609375 67.4478125 -21.4609375 73.3878125 -21.4609375 79.5078125 C-33.0109375 79.5078125 -44.5609375 79.5078125 -56.4609375 79.5078125 C-56.4609375 80.1678125 -56.4609375 80.8278125 -56.4609375 81.5078125 C-44.9109375 81.5078125 -33.3609375 81.5078125 -21.4609375 81.5078125 C-21.4609375 87.4478125 -21.4609375 93.3878125 -21.4609375 99.5078125 C-33.0109375 99.5078125 -44.5609375 99.5078125 -56.4609375 99.5078125 C-55.41788859 109.93830162 -54.21571473 115.31909144 -46.6484375 122.3203125 C-39.26861271 128.32164171 -32.03542249 131.13564758 -22.4609375 130.5078125 C-12.49393172 128.58606956 -5.39439736 123.74872897 0.5390625 115.5078125 C4.28737691 109.08755775 5.65362683 103.69671069 5.70019531 96.22387695 C5.70980286 94.9752034 5.7194104 93.72652985 5.72930908 92.4400177 C5.73415895 91.08371159 5.73843731 89.72740334 5.7421875 88.37109375 C5.74501488 87.68207663 5.74784225 86.9930595 5.75075531 86.28316307 C5.76571448 82.63416541 5.77496357 78.98520692 5.77929688 75.33618164 C5.78476523 71.59187969 5.8087676 67.84794436 5.83726883 64.1037569 C5.85602007 61.20300802 5.86110747 58.30234509 5.86263275 55.40154076 C5.86563362 54.02261548 5.87357391 52.64369076 5.88681793 51.26482582 C5.99414553 39.22805377 4.89524637 29.60763803 -3.4609375 20.5078125 C-9.31138483 14.57666934 -15.6023098 11.17319834 -24.0078125 10.515625 C-34.04803889 10.48364976 -41.21131592 13.56458907 -48.46875 20.3984375 Z " fill="#AF0088" transform="translate(280.4609375,654.4921875)"/>
<path d="M0 0 C12.54 0 25.08 0 38 0 C40.42061768 4.84909058 40.42061768 4.84909058 42.89013672 9.79614258 C48.25662088 20.54577271 53.62535306 31.29427865 58.99520683 42.04222584 C62.24692931 48.55079461 65.49791367 55.05972997 68.74707031 61.56958008 C71.58394041 67.25338824 74.42228723 72.93645623 77.26230252 78.61869353 C78.76154837 81.61847211 80.25990304 84.61868714 81.75692368 87.61957741 C88.34528102 100.82519947 95.01202982 113.97693218 101.94304466 127.00629616 C104.90995239 132.60268716 107.8095113 138.23250299 110.6875 143.875 C111.00291748 144.47844238 111.31833496 145.08188477 111.64331055 145.70361328 C112.57104205 147.48044292 113.47921155 149.26744381 114.38671875 151.0546875 C114.91483154 152.08062012 115.44294434 153.10655273 115.98706055 154.16357422 C117.62208755 158.74196509 116.3827455 161.12978067 114.46533203 165.48925781 C113.81957414 166.81385824 113.1666792 168.13499595 112.5078125 169.453125 C112.16120575 170.15395203 111.814599 170.85477905 111.45748901 171.57684326 C110.72588838 173.05081333 109.99113353 174.52322153 109.25341797 175.99414062 C108.12457208 178.25085547 107.01309013 180.51558261 105.90234375 182.78125 C105.18854037 184.21406043 104.47373121 185.64637034 103.7578125 187.078125 C103.42645294 187.75723938 103.09509338 188.43635376 102.75369263 189.13604736 C100.34359466 193.88546845 100.34359466 193.88546845 97 195 C84.35034903 169.72402289 71.70296721 144.44691153 59.05831146 119.1684351 C53.18758248 107.43214098 47.31610182 95.69622403 41.44287109 83.96118164 C36.32582183 73.73702724 31.21016292 63.51217863 26.09619665 53.2864818 C23.38649464 47.86838533 20.67608125 42.45064731 17.96400452 37.03373909 C15.41459724 31.94168049 12.86704118 26.84870019 10.32094002 21.75498772 C9.38313401 19.87965222 8.44463551 18.00466285 7.50541496 16.1300354 C6.22927401 13.5826841 4.95556551 11.03413163 3.68249512 8.48524475 C3.11636214 7.35734806 3.11636214 7.35734806 2.53879213 6.20666558 C0 1.11412121 0 1.11412121 0 0 Z " fill="#AF0088" transform="translate(568,657)"/>
<path d="M0 0 C10.89 0 21.78 0 33 0 C33.7294222 14.96157151 34.31562333 29.91374587 34.6579895 44.88903046 C34.82138111 51.84717764 35.04360518 58.79320791 35.4140625 65.74365234 C38.0497371 116.15555171 38.0497371 116.15555171 23.64642334 132.37522125 C16.82599574 139.44515755 9.23351065 145.65091443 1 151 C0.67 151 0.34 151 0 151 C0 101.17 0 51.34 0 0 Z " fill="#AF0088" transform="translate(948,657)"/>
<path d="M0 0 C2.20384317 0.02054448 4.40773696 0.03618928 6.61164856 0.04716492 C12.38169757 0.08894616 18.14864704 0.19679952 23.91748047 0.31890869 C29.8163053 0.43191729 35.71563652 0.48177661 41.61523438 0.53710938 C53.16824006 0.65469551 64.7181417 0.84799389 76.26953125 1.07421875 C76.26953125 11.96421875 76.26953125 22.85421875 76.26953125 34.07421875 C33.36953125 34.07421875 -9.53046875 34.07421875 -53.73046875 34.07421875 C-49.5697736 29.22007441 -45.40222244 24.48530499 -41.04296875 19.82421875 C-40.49447266 19.23253906 -39.94597656 18.64085937 -39.38085938 18.03125 C-38.22472653 16.79262976 -37.04924486 15.57180932 -35.85586548 14.36903381 C-33.64841418 12.08047759 -33.64841418 12.08047759 -31.73995972 9.3044281 C-23.0504506 -1.56549603 -13.0631628 -0.35884596 0 0 Z " fill="#AF0088" transform="translate(1001.73046875,817.92578125)"/>
<path d="M0 0 C12.54 0 25.08 0 38 0 C40.64 5.259375 43.28 10.51875 46 15.9375 C46.8353125 17.599021 47.670625 19.26054199 48.53125 20.97241211 C49.18765847 22.28230992 49.84391879 23.59228199 50.5 24.90234375 C50.84546875 25.58816528 51.1909375 26.27398682 51.546875 26.98059082 C54 31.8859282 54 31.8859282 54 33 C41.46 33 28.92 33 16 33 C13.36 27.740625 10.72 22.48125 8 17.0625 C6.74703125 14.57021851 6.74703125 14.57021851 5.46875 12.02758789 C4.81234153 10.71769008 4.15608121 9.40771801 3.5 8.09765625 C3.15453125 7.41183472 2.8090625 6.72601318 2.453125 6.01940918 C0 1.1140718 0 1.1140718 0 0 Z " fill="#AF0088" transform="translate(1451,819)"/>
</svg>
